<?xml version="1.0" encoding="UTF-8" standalone="no"?>
<!DOCTYPE svg PUBLIC "-//W3C//DTD SVG 1.1//EN" "http://www.w3.org/Graphics/SVG/1.1/DTD/svg11.dtd">
<svg width="100%" height="100%" viewBox="0 0 600 400" version="1.1" xmlns="http://www.w3.org/2000/svg" xmlns:xlink="http://www.w3.org/1999/xlink" xml:space="preserve" xmlns:serif="http://www.serif.com/" style="fill-rule:evenodd;clip-rule:evenodd;stroke-linejoin:round;stroke-miterlimit:2;">
    <g id="Layer1">
        <rect x="-1028.23" y="-248.288" width="1712.17" height="4055.19" style="fill:#3d4345;"/>
        <rect x="-13.101" y="-13.059" width="626.202" height="426.201" style="fill:url(#_Radial1);"/>
        <g id="CorelEMF" serif:id="CorelEMF">
        </g>
        <g id="CorelEMF1" serif:id="CorelEMF">
        </g>
        <g id="CorelEMF2" serif:id="CorelEMF">
        </g>
        <g>
            <g id="CorelEMF3" serif:id="CorelEMF">
            </g>
        </g>
        <g id="CorelEMF4" serif:id="CorelEMF">
        </g>
        <g id="CorelEMF5" serif:id="CorelEMF">
        </g>
        <path d="M299.978,72.397L427.645,200.019L299.978,327.686L172.355,200.019L299.978,72.397ZM299.978,78.26L421.781,200.019L299.978,321.823L178.219,200.019L299.978,78.26Z"/>
        <path d="M289.266,240.312L335.774,240.312C337.008,240.312 337.758,239.43 337.934,238.416C339.697,239.166 341.196,240.753 341.196,243.794C341.196,247.145 339.565,250.275 335.95,250.671C345.825,250.627 346.178,235.463 335.906,235.33L238.834,235.33C232.662,235.33 227.063,232.818 222.964,228.762C214.191,219.989 214.191,205.309 222.964,196.493C227.063,192.437 232.662,189.924 238.834,189.924L361.166,189.924C362.401,189.924 363.15,189.042 363.326,188.028C365.09,188.778 366.589,190.365 366.589,193.407C366.589,196.757 364.957,199.887 361.343,200.284C371.305,200.24 371.614,184.943 361.166,184.943L264.226,184.943C258.054,184.943 252.456,182.43 248.4,178.374C239.583,169.601 239.583,154.922 248.4,146.105C252.456,142.049 258.054,139.536 264.226,139.536L310.734,139.536C312.321,139.536 313.071,138.082 312.939,136.759C314.79,137.42 316.509,138.875 316.598,142.005C316.73,145.708 314.966,149.587 311.352,149.984C316.509,149.94 319.066,145.84 318.89,141.917C318.625,134.952 311.307,133.497 304.651,133.629C305.577,131.557 306.238,126.532 305.841,127.325C304.827,129.485 300.771,134.555 299.978,134.555C289.574,137.42 274.938,136.583 267.224,133.321C266.827,129.397 268.502,124.327 271.544,121.726C287.634,108.061 294.688,114.365 310.734,114.365C316.906,114.365 322.505,116.877 326.56,120.933C335.377,129.706 335.377,144.386 326.56,153.202C322.505,157.258 316.906,159.771 310.734,159.771L264.226,159.771C262.992,159.771 262.242,160.652 262.066,161.666C260.303,160.873 258.804,159.33 258.804,156.288C258.804,152.938 260.435,149.808 264.05,149.367C254.087,149.455 253.778,164.752 264.226,164.752L361.166,164.752C367.338,164.752 372.937,167.265 376.992,171.321C385.809,180.093 385.809,194.773 376.992,203.59C372.937,207.646 367.338,210.159 361.166,210.159L238.834,210.159C237.555,210.159 236.85,211.04 236.674,212.054C234.91,211.261 233.411,209.718 233.411,206.676C233.411,203.326 235.043,200.196 238.657,199.755C228.695,199.843 228.386,215.14 238.834,215.14L335.774,215.14C341.946,215.14 347.544,217.653 351.6,221.708C360.417,230.481 360.417,245.161 351.6,253.978C347.544,258.033 341.946,260.546 335.774,260.546L289.266,260.546C288.031,260.546 287.282,261.428 287.105,262.442C285.342,261.692 283.843,260.105 283.843,257.064C283.843,253.713 285.474,250.583 289.089,250.142C279.17,250.231 278.818,265.395 289.133,265.528L340.138,265.528L339.433,266.233C326.384,279.194 310.514,285.718 292.087,285.718L289.266,285.718C283.094,285.718 277.495,283.205 273.44,279.15C264.623,270.377 264.623,255.697 273.44,246.88C277.495,242.825 283.094,240.312 289.266,240.312ZM282.433,124.901C288.516,129.617 294.952,128.692 297.112,123.181C297.377,122.476 299.537,120.889 302.094,119.302C295.305,122.123 282.124,124.901 282.433,124.901Z" style="fill-rule:nonzero;"/>
        <path d="M305.716,309.198L318.488,309.198L300,327.686L281.512,309.198L294.284,309.198L300,314.914L305.716,309.198ZM409.157,194.325L409.157,181.554L427.645,200.041L409.157,218.529L409.157,205.757L414.873,200.041L409.157,194.325ZM190.843,194.325L190.843,181.554L172.355,200.041L190.843,218.529L190.843,205.757L185.127,200.041L190.843,194.325ZM294.284,90.884L300,85.169L305.716,90.884L318.488,90.884L300,72.397L281.512,90.884L294.284,90.884Z"/>
        <path d="M239.669,267.04L247.118,274.489L225.552,274.489L225.552,252.924L233.001,260.373L233.001,267.04L239.669,267.04ZM366.999,260.373L374.448,252.924L374.448,274.489L352.882,274.489L360.331,267.04L366.999,267.04L366.999,260.373ZM239.669,133.042L247.118,125.593L225.552,125.593L225.552,147.159L233.001,139.71L233.001,133.042L239.669,133.042ZM360.331,133.042L366.999,133.042L366.999,139.71L374.448,147.159L374.448,125.593L352.882,125.593L360.331,133.042Z"/>
    </g>
    <defs>
        <radialGradient id="_Radial1" cx="0" cy="0" r="1" gradientUnits="userSpaceOnUse" gradientTransform="matrix(2.19595e-14,-366.128,358.626,2.24189e-14,300,200.041)"><stop offset="0" style="stop-color:#fff;stop-opacity:1"/><stop offset="1" style="stop-color:#eee;stop-opacity:1"/></radialGradient>
    </defs>
</svg>
