<svg class="animated" id="freepik_stories-moving-forward" xmlns="http://www.w3.org/2000/svg" viewBox="0 0 500 500" version="1.1" xmlns:xlink="http://www.w3.org/1999/xlink" xmlns:svgjs="http://svgjs.com/svgjs"><style>svg#freepik_stories-moving-forward:not(.animated) .animable {opacity: 0;}svg#freepik_stories-moving-forward.animated #freepik--Clouds--inject-8 {animation: 3s Infinite  linear floating;animation-delay: 0s;}svg#freepik_stories-moving-forward.animated #freepik--Character--inject-8 {animation: 3s Infinite  linear floating;animation-delay: 0s;}            @keyframes floating {                0% {                    opacity: 1;                    transform: translateY(0px);                }                50% {                    transform: translateY(-10px);                }                100% {                    opacity: 1;                    transform: translateY(0px);                }            }        </style><g id="freepik--Floor--inject-8" class="animable" style="transform-origin: 250px 359.4px;"><ellipse id="freepik--floor--inject-8" cx="250" cy="359.4" rx="243.71" ry="138.85" style="fill: rgb(245, 245, 245); transform-origin: 250px 359.4px;" class="animable"></ellipse></g><g id="freepik--Shadows--inject-8" class="animable" style="transform-origin: 243.765px 351.2px;"><polygon id="freepik--Shadow--inject-8" points="142.25 456.29 156.47 448.09 27.01 373.34 72.03 347.35 201.5 422.1 212.72 415.61 216.64 458.55 142.25 456.29" style="fill: rgb(224, 224, 224); transform-origin: 121.825px 402.95px;" class="animable"></polygon><polygon id="freepik--shadow--inject-8" points="385.56 377.16 399.85 368.91 213.76 261.33 259.18 235.12 445.27 342.7 456.57 336.16 460.52 379.44 385.56 377.16" style="fill: rgb(224, 224, 224); transform-origin: 337.14px 307.28px;" class="animable"></polygon><polygon id="freepik--shadow--inject-8" points="323.28 467.28 53.65 312.1 145.6 259.2 415.23 414.38 323.28 467.28" style="fill: rgb(224, 224, 224); transform-origin: 234.44px 363.24px;" class="animable"></polygon></g><g id="freepik--Clouds--inject-8" class="animable" style="transform-origin: 388.505px 95.6231px;"><g id="freepik--clouds--inject-8" class="animable" style="transform-origin: 388.505px 95.6231px;"><path d="M343.17,97l6.92,4c0-.31-.06-.62-.06-.92v-2c0-3.57,2.51-5,5.6-3.23A10.86,10.86,0,0,1,359,98c.51-4.48,4-6.15,8.3-3.68,4.62,2.66,8.36,9.15,8.36,14.49v3a7.94,7.94,0,0,1-.7,3.47l5.74,3.32a6.86,6.86,0,0,1,3.1,5.37c0,2-1.39,2.78-3.1,1.79l-37.49-21.64a6.87,6.87,0,0,1-3.1-5.38C340.07,96.8,341.46,96,343.17,97Z" style="fill: rgb(235, 235, 235); transform-origin: 361.955px 109.682px;" id="elep96rdpe3rs" class="animable"></path><path d="M388.9,78.61l3.82,1.47V71.67c0-6.66,5.31-8.26,11.09-4.93h0c5.77,3.33,10.45,11.44,10.45,18.1v1.22a5.6,5.6,0,0,1,4.85.75h0a16.63,16.63,0,0,1,7.52,13v.56l5.32,3.07A11,11,0,0,1,436.9,112c0,3.15-2.22,4.43-4.95,2.86L388.9,90.05A11,11,0,0,1,384,81.47C384,78.31,386.17,77,388.9,78.61Z" style="fill: rgb(235, 235, 235); transform-origin: 410.45px 90.2944px;" id="elrltarppjksm" class="animable"></path></g></g><g id="freepik--Arrows--inject-8" class="animable" style="transform-origin: 247.84px 292.565px;"><g id="freepik--Arrow--inject-8" class="animable" style="transform-origin: 126.875px 345.255px;"><polygon points="217.2 362.35 209.22 366.97 72.09 287.79 33.51 310.05 33.51 317.17 164.48 392.78 162.66 393.84 162.66 400.96 220.24 402.72 220.24 395.59 217.2 362.35" style="fill: rgb(55, 71, 79); transform-origin: 126.875px 345.255px;" id="ele80mzl8craa" class="animable"></polygon><polygon points="170.65 389.23 164.48 392.79 33.51 317.17 33.51 310.05 170.65 389.23" style="fill: rgb(38, 50, 56); transform-origin: 102.08px 351.42px;" id="elgep8m0koxru" class="animable"></polygon><polygon points="220.24 395.59 217.2 362.35 209.22 366.97 72.09 287.79 33.52 310.05 170.65 389.23 162.66 393.84 220.24 395.59" style="fill: rgb(69, 90, 100); transform-origin: 126.88px 341.69px;" id="el58vqxo2vv7n" class="animable"></polygon></g><g id="freepik--arrow--inject-8" class="animable" style="transform-origin: 347.615px 252.18px;"><polygon points="459.1 281.08 451.01 285.76 272.11 182.41 233.06 204.95 233.06 212.16 405.71 311.9 403.87 312.96 403.87 320.18 462.17 321.95 462.17 314.74 459.1 281.08" style="fill: rgb(24, 156, 19); transform-origin: 347.615px 252.18px;" id="el3ox4yaqtjj9" class="animable"></polygon><g id="eluyu9ddmqypl"><polygon points="462.17 314.74 462.17 321.95 403.87 320.18 403.87 312.96 462.17 314.74" style="opacity: 0.4; transform-origin: 433.02px 317.455px;" class="animable"></polygon></g><g id="ell32r11bkb3q"><polygon points="411.96 308.3 405.71 311.9 233.06 212.16 233.06 204.95 411.96 308.3" style="opacity: 0.5; transform-origin: 322.51px 258.425px;" class="animable"></polygon></g><polygon points="462.17 314.74 459.1 281.08 451.01 285.76 272.11 182.41 233.06 204.95 411.96 308.3 403.87 312.96 462.17 314.74" style="fill: rgb(24, 156, 19); transform-origin: 347.615px 248.575px;" id="el6pw6v2vqgls" class="animable"></polygon><g id="el375e93fbsb8"><polygon points="462.17 314.74 459.1 281.08 451.01 285.76 272.11 182.41 233.06 204.95 411.96 308.3 403.87 312.96 462.17 314.74" style="opacity: 0.3; transform-origin: 347.615px 248.575px;" class="animable"></polygon></g></g></g><g id="freepik--Road--inject-8" class="animable" style="transform-origin: 236.185px 303.785px;"><g id="freepik--arrow--inject-8" class="animable" style="transform-origin: 236.185px 303.785px;"><polygon points="52.41 244.7 52.41 260.16 325.46 417.63 325.46 402.11 52.41 244.7" style="fill: rgb(24, 156, 19); transform-origin: 188.935px 331.165px;" id="el9zhcypkbbbc" class="animable"></polygon><g id="elhqvg3hdco2i"><polygon points="52.41 244.7 52.41 260.16 325.46 417.63 325.46 402.11 52.41 244.7" style="opacity: 0.25; transform-origin: 188.935px 331.165px;" class="animable"></polygon></g><polygon points="419.96 347.35 146.91 189.94 52.41 244.7 325.46 402.11 419.96 347.35" style="fill: rgb(24, 156, 19); transform-origin: 236.185px 296.025px;" id="el75iitpzuzdc" class="animable"></polygon><polygon points="325.46 402.11 325.46 417.63 419.96 362.86 419.96 347.35 325.46 402.11" style="fill: rgb(24, 156, 19); transform-origin: 372.71px 382.49px;" id="el4x8irc4krcr" class="animable"></polygon><g id="el9n7n730orn9"><polygon points="325.46 402.11 325.46 417.63 419.96 362.86 419.96 347.35 325.46 402.11" style="opacity: 0.15; transform-origin: 372.71px 382.49px;" class="animable"></polygon></g><g id="freepik--Lines--inject-8" class="animable" style="transform-origin: 232.9px 292.954px;"><path d="M116.86,222.89l23.08,13.32c.53.31.53.8,0,1.1l-3.45,2a2.06,2.06,0,0,1-1.9,0L111.51,226c-.53-.31-.53-.8,0-1.1l3.45-2A2.06,2.06,0,0,1,116.86,222.89Z" style="fill: rgb(250, 250, 250); transform-origin: 125.725px 231.102px;" id="elqcu7imzzcph" class="animable"></path><path d="M170.45,253.81l23.08,13.33c.53.3.53.79,0,1.1l-3.45,2a2.12,2.12,0,0,1-1.9,0L165.1,256.9c-.53-.3-.53-.79,0-1.1l3.45-2A2.12,2.12,0,0,1,170.45,253.81Z" style="fill: rgb(250, 250, 250); transform-origin: 179.315px 262.022px;" id="el6fu0n4ffv1p" class="animable"></path><path d="M224,284.74l23.08,13.33a.58.58,0,0,1,0,1.09l-3.45,2a2.14,2.14,0,0,1-1.91,0l-23.08-13.33a.58.58,0,0,1,0-1.1l3.45-2A2.14,2.14,0,0,1,224,284.74Z" style="fill: rgb(250, 250, 250); transform-origin: 232.853px 292.947px;" id="elplmsehvqgfs" class="animable"></path><path d="M277.62,315.67,300.7,329c.53.31.53.8,0,1.1l-3.45,2a2.06,2.06,0,0,1-1.9,0l-23.08-13.32c-.53-.31-.53-.8,0-1.1l3.45-2A2.06,2.06,0,0,1,277.62,315.67Z" style="fill: rgb(250, 250, 250); transform-origin: 286.485px 323.887px;" id="el1v8clbrtysp" class="animable"></path><path d="M331.21,346.59l23.08,13.33c.53.3.53.79,0,1.1l-3.45,2a2.12,2.12,0,0,1-1.9,0l-23.09-13.33a.58.58,0,0,1,0-1.1l3.46-2A2.12,2.12,0,0,1,331.21,346.59Z" style="fill: rgb(250, 250, 250); transform-origin: 340.071px 354.805px;" id="elw44i0jhmm4o" class="animable"></path></g></g></g><g id="freepik--Character--inject-8" class="animable animator-active" style="transform-origin: 184.936px 169.195px;"><g id="freepik--character--inject-8" class="animable" style="transform-origin: 184.936px 169.195px;"><g id="freepik--shadow--inject-8"><ellipse cx="226.29" cy="288.42" rx="29.87" ry="17.24" style="opacity: 0.1; transform-origin: 226.29px 288.42px;" class="animable"></ellipse></g><path d="M137.93,185.32a6.58,6.58,0,0,0-3.29-2.42c-1.31-.43-5.08.24-7,3.23s-2.51,6.72-3.67,9-4.66,5.79-6.56,7.55-5,8.51-3.11,13.14a4,4,0,0,0,2.31,2Z" id="el3kuex9i1637" class="animable" style="transform-origin: 125.821px 200.301px;"></path><path d="M136.8,184.34c-1.94-.62-5.16.34-7.19,2.81-1.76,2.14-2.68,5.61-3.65,8.11a13.18,13.18,0,0,1-2.36,3.4c-2.26,2.9-5.42,4.88-6.9,8.36a19.48,19.48,0,0,0-1.36,5.53,7.47,7.47,0,0,0,.38,4c1.18,2.54,4.52,2.44,6.44.86a19.57,19.57,0,0,0,2.89-3.51c3-4,7.32-7,11.51-9.82,1.14-.78,2.41-1.49,3.48-2.37.55-.45.5-1.05.57-1.71.39-3.55.65-7.11.93-10.67C140.31,189,138.74,185,136.8,184.34Z" style="fill: rgb(38, 50, 56); transform-origin: 128.381px 201.348px;" id="el30fnvttom3x" class="animable"></path><path d="M177.08,141l-2.19,65.45c-1.51-3.33-8.48-6.22-14.24-8.21-3.7-1.27-10-4.64-14.17-6.28h0l-6.73-3.59a7.26,7.26,0,0,0-3.74,1.82c-1.38,1.19-3.9,5.54-2.07,6.85a1.79,1.79,0,0,1,.93,1.59c1.12-.65,3,.2,4.18,1a2.22,2.22,0,0,1,.93,1.25s23.41,15.87,31.16,21.05c9.53,6.38,14.79,3.72,18.38-1s10-20.73,14.3-33.6,7.49-31.51,9.94-42Z" style="fill: rgb(255, 168, 167); transform-origin: 173.529px 183.351px;" id="el0acixq76ayym" class="animable"></path><path d="M212.7,153.11c-2,13-12.44,53.72-20.81,66s-14.69,7.85-19.68,5.4-37.09-20.88-37.09-20.88a10.19,10.19,0,0,1-1.82-12c3.5-7.25,7.47-6.14,7.47-6.14s29.44,13.38,32.76,17.9l2.91-55Z" style="fill: rgb(55, 71, 79); transform-origin: 172.407px 187.865px;" id="eltirifeden2k" class="animable"></path><path d="M197.39,162.15l10.7,11.54-5.86-10A20.44,20.44,0,0,0,212.44,152S205,161.06,197.39,162.15Z" style="fill: rgb(38, 50, 56); transform-origin: 204.915px 162.845px;" id="elsp1fg53y979" class="animable"></path><path d="M224.92,267c.36-11.58,1.13-46.39,1.26-55.18.13-9.78,1.27-13-7.8-24-10-12.08-21-25.65-21-25.65l16.36-14.79-46.56-5.78c-1.81,7.22-3.52,9.81-3.64,18.15-.08,5.82-.8,12.92,22.14,31.7C198.33,201.78,208,208.64,208,208.64s-2.85,5.14-2.68,14.59,7.06,40.56,7.72,48.87c0,.36,0,.7,0,.95,0,.41.29.58.56.85,1.15,1.15,2,3.31,2.9,4.65a4.41,4.41,0,0,0,3.78,1.93,5.31,5.31,0,0,0,3.83-2,6.29,6.29,0,0,0,1.22-2.42,5.6,5.6,0,0,0,.22-1.35,9.73,9.73,0,0,0-.31-1.4A36.79,36.79,0,0,1,224.92,267Z" style="fill: rgb(255, 168, 167); transform-origin: 194.907px 211.041px;" id="el0tau1rexxf4" class="animable"></path><path d="M212.59,279.81c-.6.14-.57,2.13-.33,2.8s1.94,2.12,3.33,3.13A16.82,16.82,0,0,1,219.8,291a20.54,20.54,0,0,0,6,6.85c3,2,7.23,2.55,11.33,1.86,4.31-.72,4.69-2.31,4.72-3.83Z" style="fill: rgb(38, 50, 56); transform-origin: 226.975px 289.902px;" id="eli6g7oo78l3i" class="animable"></path><path d="M225.29,273.46c.31,0,.61,0,.92-.06a.44.44,0,0,1,.54.51,16.42,16.42,0,0,0,2.5,5.9,30.48,30.48,0,0,0,3.91,4.75c3.25,3.49,6.91,5.08,9,7.92.55.73.16,2.48-.21,3.12-1,1.79-4.45,2.74-8.29,2.74-5.42,0-8.07-2.71-10.6-5.5-1.78-2-4.17-5.46-5.45-7s-4.81-3.25-5.55-5.08c-.59-1.54-.2-3.78.19-5.71.37-1.76.19-3.53.8-3.4a2.81,2.81,0,0,0,0,.77c.1.23.39.41.56.59a28.61,28.61,0,0,0,2.22,2.57,2.59,2.59,0,0,0,1.65.65,1.55,1.55,0,0,0,1.41-1c.24-.66.23-.71.83-.9a16.62,16.62,0,0,1,1.7-.37A34.92,34.92,0,0,1,225.29,273.46Z" style="fill: rgb(55, 71, 79); transform-origin: 227.096px 284.992px;" id="elaxpsv3ydq7o" class="animable"></path><path d="M165.86,140.22c-2.19,8.69-4.07,20.89-2.33,26.31s3.94,10.3,18.63,23.34,23.36,19.69,23.36,19.69-2.11,8.72,0,21.56,5.76,43.14,5.76,43.14,5.73,8,16.53,1.26c0,0-.71-54.45-.1-66s-1.28-13.83-7.54-21.73-22.78-25.68-22.78-25.68c4.84-.27,15-4.39,16.36-14.79Z" style="fill: rgb(69, 90, 100); transform-origin: 195.333px 209.22px;" id="el128sv0rff8mk" class="animable"></path><path d="M255.5,86.31c-1-11.12-4-15.77-8.64-16.88-7.44-1.76-8,1-5.39,6.46A26.78,26.78,0,0,1,243.78,83,13.5,13.5,0,0,0,241,80.5a2.64,2.64,0,0,0-3.55.35c-.33.47.89,1.2,2,3.2,1.46,2.55,1.52,4.44,3.74,6.72a7.41,7.41,0,0,1,1.39,4c.17,4-.77,9.4-2.07,14.61-3.88-5.5-8.19-11.08-11.44-15.46-6-8-8.82-10.52-17.71-11.91l3,19.84s22.4,29.71,28.65,31.48c2.66.75,4.74.28,6-1.11h0l.06-.06.07-.09c1.87-2.14,3-8.67,3.65-17.95h0c.42-4.64.74-9.89,1.13-15.53A87,87,0,0,0,255.5,86.31Z" style="fill: rgb(255, 168, 167); transform-origin: 234.669px 101.293px;" id="el6b3qn72qmqh" class="animable"></path><path d="M212,81.71c6.88.81,10.09,1.89,13.66,5.12s17,21.87,17,21.87l1.07-4.1a9.81,9.81,0,0,0,6.33,4.1c4.42.86,5.27,0,5.27,0a106.81,106.81,0,0,1-.85,13.77c-1,7.55-2.33,11.48-6.58,11.76s-8.43-4.21-14.21-10.13c-6.44-6.6-16.6-18.23-16.6-18.23Z" style="fill: rgb(69, 90, 100); transform-origin: 233.665px 107.976px;" id="elg5ct95nwoti" class="animable"></path><path d="M242.58,108.7s-1.06,3.82-1.53,6.2c-.32,1.59-.94,5.95.13,9.47,0,0-2-2.41-1.86-7.76a32.58,32.58,0,0,1,1.91-9.78Z" style="fill: rgb(55, 71, 79); transform-origin: 240.946px 115.6px;" id="eludm9oeral" class="animable"></path><path d="M219.33,105.06c-.05-7.47,1.69-21.25-5.65-23-10.12-2.36-13.88-2.36-20.38-2.36A140.84,140.84,0,0,0,172,82.1c-3.55.38-5.21,5.48-5.21,18,0,9.5.79,14.76.78,23.24l-4,26.53c5.81,8.06,33.29,12.17,49.15,3.26C215.92,138.27,219.37,111.73,219.33,105.06Z" style="fill: rgb(55, 71, 79); transform-origin: 191.523px 118.927px;" id="el47it0zyqvse" class="animable"></path><path d="M183.41,56.32l1.94,11.42c.47,2.65,1.87,4.08,4.56,4.28l3.59.26,1.23-16.92Z" style="fill: rgb(38, 50, 56); transform-origin: 189.07px 63.82px;" id="eltgcryt76dek" class="animable"></path><path d="M187.83,43.33a5,5,0,0,0-4.19,1.14c-1.89,1.67-.72,6.25.11,14l4.34-.21Z" style="fill: rgb(38, 50, 56); transform-origin: 185.357px 50.858px;" id="elp9q62mmo2l" class="animable"></path><path d="M189.3,58.34c-.85.42-1.88-1.21-2.8-2.32s-4.06-2.77-5.92.52.87,7,3.07,8.52,4.47-.85,4.47-.85c-.16,3.18-1.07,8.07-2.05,16.12,2.94,5.6,11.13,5.83,15.76,8.09a7.69,7.69,0,0,0,1.38-7l.92-4.64a35,35,0,0,0,4.79.55c2.9.07,5.45.46,7.37-4,2.1-4.94,3.39-14.31,2.48-23.82-1.17-12.2-15.48-13.13-23.45-8.89S189.3,58.34,189.3,58.34Z" style="fill: rgb(255, 168, 167); transform-origin: 199.514px 63.3739px;" id="elvgkancn2ng" class="animable"></path><path d="M187,42.28a8.1,8.1,0,0,1,3.44-6A14.19,14.19,0,0,1,197.05,34c3.57-.36,7.16.26,10.74.63,4.34.45,8.53.4,12.55-1.53.55-.26,1.21-.55,1.72-.23a1.58,1.58,0,0,1,.51,1.51,9.86,9.86,0,0,1-1,3.56c-.54,1.14-1.35,2.13-1.9,3.25a6,6,0,0,0,3.43-.4,2.55,2.55,0,0,1,.76-.27.71.71,0,0,1,.71.28,1,1,0,0,1,.07.63,9.17,9.17,0,0,1-14.51,6.23,6.91,6.91,0,0,1-6,1.49c-.92-.22-4-1.11-4.67-3.2a8.28,8.28,0,0,1-7.72,5.52A56.66,56.66,0,0,1,190.53,58c-.25,1-.79,1.79-1.8,1.14-.84-.55-1.81-2.53-2.41-3.35-.18-.25-.21-.65-.27-1.8a46,46,0,0,1,.35-7C186.56,45.41,186.74,43.84,187,42.28Z" style="fill: rgb(38, 50, 56); transform-origin: 205.348px 46.053px;" id="elvl0wbxmrkh8" class="animable"></path><path d="M186.75,44.22l-5.2-3.3a3,3,0,0,1,4.2-1.06A3.23,3.23,0,0,1,186.75,44.22Z" style="fill: rgb(38, 50, 56); transform-origin: 184.379px 41.8114px;" id="el1c1998crol" class="animable"></path><path d="M192.12,72.85c-1.52-1.93-2.29-7.45-2.29-7.45.33,1,2.66,5.54,4,6.88,2.63,2.57,10.27,4.54,10.27,4.54l-.49,2.42C201.87,78.71,194.75,76.18,192.12,72.85Z" style="fill: rgb(242, 143, 143); transform-origin: 196.965px 72.32px;" id="elewit5eqeu76" class="animable"></path><path d="M204.5,58.56A1.45,1.45,0,1,1,203.13,57,1.49,1.49,0,0,1,204.5,58.56Z" style="fill: rgb(38, 50, 56); transform-origin: 203.053px 58.448px;" id="elunu7npy16e" class="animable"></path><path d="M202.92,53.67l-3.2,1.54a1.87,1.87,0,0,1,.86-2.43A1.74,1.74,0,0,1,202.92,53.67Z" style="fill: rgb(38, 50, 56); transform-origin: 201.239px 53.9123px;" id="el618f2175sl" class="animable"></path><path d="M202.76,67.08l5.6,2.46a3,3,0,0,1-4,1.68A3.21,3.21,0,0,1,202.76,67.08Z" style="fill: rgb(177, 102, 104); transform-origin: 205.437px 69.2747px;" id="elxxip4pmb07" class="animable"></path><path d="M203.23,68.62a2.09,2.09,0,0,0-.67.12,3.12,3.12,0,0,0,1.81,2.48,2.75,2.75,0,0,0,1,.23,1.91,1.91,0,0,0,.09-.64A2.23,2.23,0,0,0,203.23,68.62Z" style="fill: rgb(242, 143, 143); transform-origin: 204.01px 70.035px;" id="eliktowxsv58e" class="animable"></path><path d="M217.35,55.34,214.64,53a1.72,1.72,0,0,1,2.48-.24A1.87,1.87,0,0,1,217.35,55.34Z" style="fill: rgb(38, 50, 56); transform-origin: 216.201px 53.8402px;" id="elnh9bpczlo7g" class="animable"></path><path d="M216.3,58.73a1.45,1.45,0,1,1-2.9-.17,1.47,1.47,0,0,1,1.53-1.42A1.48,1.48,0,0,1,216.3,58.73Z" style="fill: rgb(38, 50, 56); transform-origin: 214.851px 58.6199px;" id="elx94unauf3c" class="animable"></path><polygon points="209.4 57.51 209.12 66.25 213.8 65.09 209.4 57.51" style="fill: rgb(242, 143, 143); transform-origin: 211.46px 61.88px;" id="elhzzpmojytll" class="animable"></polygon><path d="M145,160.18c-1.3-3.05-2.21-4-2.8-6.88a13.07,13.07,0,0,0,2.72,2.19c1.23.63,2.88.62,3.31-.49s-1.46-1.79-2.16-3.07a37.68,37.68,0,0,0-3.87-6.2,4.22,4.22,0,0,1-1.34-3c.14-8.17,1.36-17,1.6-25.33,6-4.26,19.56-10,25-13.46a16.09,16.09,0,0,0,4.31-3.06c2.26-2.43,3.44-8.36,3.77-13.57.27-4.1-.64-5.68-.64-5.68A20.32,20.32,0,0,0,165.73,83c-2.34,1-7.24,3.58-17,9.66a88.42,88.42,0,0,0-19.37,15.92c-2.53,2.9-1,26.59-.59,32.2.21,3.05.65,7.73,1.31,11.74,1.12,6.77,4.93,12.41,9.8,13.62C147.6,168.11,146.79,164.32,145,160.18Z" style="fill: rgb(255, 168, 167); transform-origin: 151.763px 124.119px;" id="el1ab4t8uh7tk" class="animable"></path><path d="M176,81.4c-11.89-.82-17.55,4.09-27.15,10.61s-19.69,13.73-21,18,.23,20.11.23,20.11,4.92,3,13.41,0l1.32-12.64,28-13.44C173.44,102.66,179.11,92.24,176,81.4Z" style="fill: rgb(69, 90, 100); transform-origin: 152.115px 106.382px;" id="elddrnnamn06a" class="animable"></path><path d="M204.63,91.54a6.3,6.3,0,0,0,1.25-3.26l-2-2.15-.62,2.93Z" style="fill: rgb(24, 156, 19); transform-origin: 204.57px 88.835px;" id="el5b6h561e92" class="animable"></path><g id="eltlsxui8iann"><path d="M204.63,91.54a6.3,6.3,0,0,0,1.25-3.26l-2-2.15-.62,2.93Z" style="opacity: 0.25; transform-origin: 204.57px 88.835px;" class="animable"></path></g><polygon points="200.45 88.86 195.08 84.22 189.85 86.93 198.26 92.53 200.45 88.86" style="fill: rgb(24, 156, 19); transform-origin: 195.15px 88.375px;" id="eln18re7ey1a" class="animable"></polygon><g id="elsnlbnizpqn"><polygon points="200.45 88.86 195.08 84.22 189.85 86.93 198.26 92.53 200.45 88.86" style="opacity: 0.25; transform-origin: 195.15px 88.375px;" class="animable"></polygon></g><path d="M186.8,74.76l-.29,2.08c3.26,4.66,7.32,6,10.32,7.65a20.49,20.49,0,0,1,5,3.93,9.07,9.07,0,0,0-4.28,1.11c-2.39,1.27-4.8,3.16-6,2.88s-3.66-2.68-6.44-7c-1.12-1.74-2.1-3.92-3.3-4.81l-2.1.27C182.53,79.08,184.66,74.17,186.8,74.76Z" style="fill: rgb(69, 90, 100); transform-origin: 190.77px 83.5745px;" id="el6jevzhg8jff" class="animable"></path><path d="M201.83,88.42c3,0,3.7,2.47,4.36,1.81s.26-8-2.59-10.73Z" style="fill: rgb(69, 90, 100); transform-origin: 204.148px 84.921px;" id="eliiedp8by62i" class="animable"></path><path d="M165.29,117.5c25.86,1.44,34.61-17.58,34.78-21.86l3,0c1.46,5.34-1.25,28.68-28.57,34.25-5.58,1-17-2-17.84-4S162.71,117.36,165.29,117.5Z" style="fill: rgb(24, 156, 19); transform-origin: 179.986px 112.864px;" id="elspnde1r852c" class="animable"></path><g id="elbuf7c2i8u2"><path d="M203.18,96.12c0-.15-.07-.3-.1-.43l-3,0L200,96.89A5.07,5.07,0,0,0,203.18,96.12Z" style="opacity: 0.15; transform-origin: 201.59px 96.3005px;" class="animable"></path></g><path d="M200.45,88.86a12.91,12.91,0,0,1,2.82.2,6.9,6.9,0,0,1,1.36,2.48,10.36,10.36,0,0,1-1.55,4.15,3.62,3.62,0,0,1-3,0,6.28,6.28,0,0,1-1.81-3.11A5.67,5.67,0,0,1,200.45,88.86Z" style="fill: rgb(24, 156, 19); transform-origin: 201.45px 92.4328px;" id="elvmhg8zzyam" class="animable"></path></g></g><defs>     <filter id="active" height="200%">         <feMorphology in="SourceAlpha" result="DILATED" operator="dilate" radius="2"></feMorphology>                <feFlood flood-color="#32DFEC" flood-opacity="1" result="PINK"></feFlood>        <feComposite in="PINK" in2="DILATED" operator="in" result="OUTLINE"></feComposite>        <feMerge>            <feMergeNode in="OUTLINE"></feMergeNode>            <feMergeNode in="SourceGraphic"></feMergeNode>        </feMerge>    </filter>    <filter id="hover" height="200%">        <feMorphology in="SourceAlpha" result="DILATED" operator="dilate" radius="2"></feMorphology>                <feFlood flood-color="#ff0000" flood-opacity="0.5" result="PINK"></feFlood>        <feComposite in="PINK" in2="DILATED" operator="in" result="OUTLINE"></feComposite>        <feMerge>            <feMergeNode in="OUTLINE"></feMergeNode>            <feMergeNode in="SourceGraphic"></feMergeNode>        </feMerge>            <feColorMatrix type="matrix" values="0   0   0   0   0                0   1   0   0   0                0   0   0   0   0                0   0   0   1   0 "></feColorMatrix>    </filter></defs></svg>