<?xml version="1.0" standalone="no"?><svg xmlns="http://www.w3.org/2000/svg" viewBox="0 0 1440 320"><path fill="#f3f4f5" fill-opacity="1" d="M0,32L26.7,53.3C53.3,75,107,117,160,144C213.3,171,267,181,320,202.7C373.3,224,427,256,480,224C533.3,192,587,96,640,48C693.3,0,747,0,800,0C853.3,0,907,0,960,16C1013.3,32,1067,64,1120,96C1173.3,128,1227,160,1280,144C1333.3,128,1387,64,1413,32L1440,0L1440,320L1413.3,320C1386.7,320,1333,320,1280,320C1226.7,320,1173,320,1120,320C1066.7,320,1013,320,960,320C906.7,320,853,320,800,320C746.7,320,693,320,640,320C586.7,320,533,320,480,320C426.7,320,373,320,320,320C266.7,320,213,320,160,320C106.7,320,53,320,27,320L0,320Z"></path></svg>